<svg width="41" height="40" viewBox="0 0 41 40" fill="none" xmlns="http://www.w3.org/2000/svg">
<path d="M15.05 0C12.3 0 10.05 2.25 10.05 5V10H0.5C0.2 10 0.05 10.2 0.05 10.45V22.5C0.05 23.9 1.15 25 2.55 25H37.55C38.95 25 40.05 23.9 40.05 22.5V10.45C40.05 10.15 39.85 10 39.6 10H30.05V5C30.05 2.25 27.8 0 25.05 0L15.05 0ZM15.05 5H25.05V10H15.05V5ZM0.05 29.55V39.55C0.05 39.8 0.25 40 0.5 40H39.55C39.8 40 40 39.8 40 39.55V29.55C39.2 29.85 38.4 30 37.5 30H2.5C1.6 30 0.8 29.8 0 29.55H0.05Z" fill="black"/>
</svg>
