<svg width="41" height="40" viewBox="0 0 41 40" fill="none" xmlns="http://www.w3.org/2000/svg">
<path d="M27.5281 0C20.6367 0 15.0437 5.59301 15.0437 12.4844C15.0437 14.0824 15.4432 15.5805 15.9925 17.0287L1.46067 31.4107C-0.486891 33.3583 -0.486891 36.6542 1.46067 38.6017C2.45943 39.6005 3.7578 40 5.05618 40C6.35456 40 7.65293 39.5506 8.65169 38.6017L23.0337 24.0699C24.432 24.6192 25.9301 25.0187 27.578 25.0187C34.4694 25.0187 40.0624 19.4257 40.0624 12.5343C40.0624 11.7353 40.0624 10.9363 39.9126 10.1873L35.0687 15.0312H25.0811V5.0437L29.9251 0.19975C29.176 0.0499376 28.377 0.0499376 27.578 0.0499376L27.5281 0ZM5.05618 32.4594C6.45443 32.4594 7.55306 33.5581 7.55306 34.9563C7.55306 36.3546 6.45443 37.4532 5.05618 37.4532C3.65793 37.4532 2.5593 36.3546 2.5593 34.9563C2.5593 33.5581 3.65793 32.4594 5.05618 32.4594Z" fill="black"/>
</svg>
